<svg xmlns="http://www.w3.org/2000/svg" viewBox="0 0 132.12 69.22"><defs><style>.cls-1{fill:#fff;}</style></defs><g id="Layer_2" data-name="Layer 2"><g id="Layer_1-2" data-name="Layer 1"><g id="Layer_2-2" data-name="Layer 2"><g id="Layer_1-2-2" data-name="Layer 1-2"><path class="cls-1" d="M103.18,23.62,106.6,25l7.55,1.46-13.21-5.39.15.18ZM81.42,20.68l-2.29-.49,6.13,7.29,5.39,6.39L95.14,37l-5.61-6.65L81.68,21Zm-9-19.37-1,2.76L85.56,21.12l4,.86L82,13h0ZM57.72,38.4,52.15,26.72,48.94,28.8l6.74,14.12,5.46-6.36h0l4.24-4.92.23-.26.06-.08.06.08.23.26,4.3,5h0L75.78,43l6.77-14.18v-.05l-2.89-2L74.1,38.46v.11l-.08-.1L69.26,33h0l-3.52-3.88-3.18,3.82h0l-4.7,5.46-.08.1ZM47.17,26.76l.18-.21.17-.21.18-.22.18-.21h0l.18-.21.17-.21.18-.22.18-.21.17-.21.18-.21.18-.21.18-.22.17-.21.18-.21.18-.21.17-.21.18-.22.18-.21.18-.21.17-.21.18-.21.18-.22.17-.21.18-.21.18-.21.18-.21.16-.25.18-.21.18-.21.18-.21.17-.21h0l-2.7.53-.23.27-2.08,2.53-2.7,3.2c-.91,1.08-1.71,2-2.27,2.72h0L36.45,36.9l5.4-3.77ZM60.32,4,59,1.15l-8,9.68L41.94,22l4.49-1ZM15.65,17.5l-.3,9.44,16.59-6.88.32-.13-.23.26-6.91,8-7.7,8.91,8.8-2.1h.22l-.14.18L9.7,56.81h0L1,68.23,33.74,46.58h0l11.79-7.74.08-.05v.08l5.66,11.05L52,51.4l2.61,5.11,11-12.93.06-.07.06.07,11.06,13L84.3,42h0l1.55-3v-.08l.08,0,23.22,15.14h0l21.8,14L118.22,51.77h0L105.39,35.2l-.14-.18h.22l8.93,2.07-9.26-10.51-4.34-5-1.25-1.43-.22-.26.31.13,16.84,6.88-.33-9.52L96.25,9.89,72.77,1,82.4,12.6l8.25,10,.15.18-.23-.05-8.38-1.8L89.94,30l7.47,8.86.39.46L97.3,39,82.94,29.11l-7,14.62,0,.12-.09-.1-5.86-6.84L65.7,32l-4.18,4.86L55.65,43.7l-.08.09-.06-.11-7-14.61L34.35,38.93l-.5.35.39-.46,8.08-9.69h0l5-6,2-2.32-8.38,1.85-.23.05.15-.18,9.85-12L58.6.92l-20,7.7Zm1.86,9.05,8-1.52,2.65-1.09,2.44-2.82Zm8.17-.72-8.74,1.66a.76.76,0,0,1-.3,0,.69.69,0,0,1-.25-.1l-.81.34h-.29a.66.66,0,0,1-.51-.23.68.68,0,0,1-.2-.52h0l.3-9.6a.63.63,0,0,1,.06-.38.7.7,0,0,1,.34-.27l23-8.9L58.59.05h.09a.75.75,0,0,1,.26,0,.66.66,0,0,1,.35.16.67.67,0,0,1,.14.15.8.8,0,0,1,.08.16l.09.09h0l.07.13,1.38,3.05v.07h0a.62.62,0,0,1,0,.33.78.78,0,0,1-.16.36L48.05,20.26,49.31,20h.26l.1-.05h.13l3-.58h.08a1,1,0,0,1,.25,0,.62.62,0,0,1,.28.14.69.69,0,0,1,.26.5.75.75,0,0,1-.17.54l-.17.21-.18.21-.18.21-.17.22-.18.21-.18.21-.18.21-.17.21-.18.22-.18.21-.17.21-.22.12-.18.21-.18.22-.17.21-.18.21-.18.21-.17.21-.18.22-.18.21-.18.3-.17.21-.18.21-.18.22-.18.21-.17.21-.18.21-.18.21,0,.07h0l-.12.14-.18.22-.18.21-.14.17h0l-2.57,3.07,2.87-2a.18.18,0,0,1,.07-.05h.19L51.74,26h.13a.78.78,0,0,1,1,.38L57.94,37l4-4.61v-.06l3.2-3.83h0a.72.72,0,0,1,.53-.19.74.74,0,0,1,.5.24l3.56,3.93h0l4,4.62,5.14-10.75v-.08h0a.71.71,0,0,1,1-.18l3,2.06.16.13h0a.71.71,0,0,1,.1.14h0l3.93,2.72L84.63,28l-6.24-7.43a.61.61,0,0,1-.18-.31.69.69,0,0,1,0-.35.72.72,0,0,1,.86-.57h0l2.56.55h.16a.49.49,0,0,1,.14.11h.24l1.78.38L70.77,4.55h0a.7.7,0,0,1-.12-.28.62.62,0,0,1,0-.38l1.07-3V.83h0a.24.24,0,0,1,0-.12.33.33,0,0,1,0-.14.75.75,0,0,1,.39-.41.68.68,0,0,1,.56,0l23.77,9,20,7.54h.08a1.18,1.18,0,0,1,.27.23.73.73,0,0,1,.13.4l.33,9.7v.08h0v.21a.75.75,0,0,1-1,.43l0,0h0l-1-.39a.59.59,0,0,1-.24.09.71.71,0,0,1-.29,0l-8.37-1.62h-.14l-1.21-.5.66.76,9.4,10.72a.75.75,0,0,1,.18.31.77.77,0,0,1,0,.37.75.75,0,0,1-.88.55l-7.17-1.66,11.58,15v.06h0L131.94,68a.72.72,0,0,1,.06.88.73.73,0,0,1-1,.22l-22.2-14.31h-.07L86.2,40,85,42.32h0L77.48,57l-.08.12h0a.47.47,0,0,1-.1.1.72.72,0,0,1-1-.08L65.69,44.77,55.23,57.13l-.06.06h0l-.12.08a.77.77,0,0,1-.56,0,.69.69,0,0,1-.42-.36c-.45-.87-.9-1.74-1.34-2.61l-1.39-2.53-.75-1.48L45.3,40,34.19,47.26h-.07l-33,21.87H1.05a.62.62,0,0,1-.35.08.64.64,0,0,1-.42-.15.72.72,0,0,1-.14-1L9,56.36H9l15.35-20-7,1.66h-.08A.57.57,0,0,1,17,38a.73.73,0,0,1-.38-1.19l7.86-9.1,1.76-2-.43.18h-.15Z"/></g></g></g></g></svg>