<svg xmlns="http://www.w3.org/2000/svg" xmlns:xlink="http://www.w3.org/1999/xlink" viewBox="0 0 408.48 293.14"><defs><style>.cls-1,.cls-10,.cls-11,.cls-12,.cls-14,.cls-15,.cls-16,.cls-2,.cls-3,.cls-4,.cls-9{fill:none;}.cls-1,.cls-12{stroke:#000;}.cls-1,.cls-9{stroke-width:4px;}.cls-11,.cls-15,.cls-2{stroke:#d1d1d1;}.cls-10,.cls-14,.cls-2{stroke-width:3px;}.cls-10,.cls-3{stroke:#7b7b7b;}.cls-11,.cls-3{stroke-width:2px;}.cls-14,.cls-4,.cls-9{stroke:#fff;}.cls-5{fill:#ccc;}.cls-6{fill:url(#linear-gradient);}.cls-7{fill:#666;}.cls-8{fill:#1f1e1d;}.cls-13{fill:#fff;}.cls-16{stroke:#1f1f1f;stroke-miterlimit:10;}</style><linearGradient id="linear-gradient" x1="4.5" y1="11.61" x2="404.13" y2="11.61" gradientUnits="userSpaceOnUse"><stop offset="0" stop-color="#0f4bb4"/><stop offset="0.27" stop-color="#205ec3"/><stop offset="0.73" stop-color="#3a7bda"/><stop offset="0.99" stop-color="#4486e3"/></linearGradient></defs><g id="Layer_2" data-name="Layer 2"><g id="Layer_1-2" data-name="Layer 1"><g id="Browser2"><rect class="cls-1" x="2" y="2" width="404.48" height="289.14"/><rect class="cls-2" x="1.5" y="1.5" width="404.48" height="289.14"/><rect class="cls-3" x="2" y="2" width="404.48" height="289.14"/><rect class="cls-4" x="1.5" y="1.5" width="404.48" height="289.14"/><rect class="cls-5" x="2" y="2" width="404.48" height="289.14"/><rect class="cls-6" x="4.5" y="3.52" width="399.62" height="16.17"/><polygon class="cls-7" points="39.23 33.44 35.07 29.28 35.07 31.95 28.99 31.95 28.99 34.93 35.07 34.93 35.07 37.6 39.23 33.44"/><polygon class="cls-8" points="13.15 33.44 17.32 29.28 17.32 31.95 23.4 31.95 23.4 34.93 17.32 34.93 17.32 37.6 13.15 33.44"/><rect class="cls-9" x="68.98" y="25.48" width="305.71" height="15.93"/><rect class="cls-10" x="68.48" y="24.98" width="305.71" height="15.93"/><rect class="cls-11" x="68.98" y="25.48" width="305.71" height="15.93"/><rect class="cls-12" x="68.48" y="24.98" width="305.71" height="15.93"/><rect class="cls-13" x="68.98" y="25.48" width="305.71" height="15.93"/><path class="cls-8" d="M395.84,29.55v1.64H385.58V29.55Zm-10.26,4.71h10.26V32.62H385.58Zm0,3.07h10.26V35.7H385.58Z"/><path class="cls-8" d="M57.7,31.13v.65l-5-4.35-5,4.35v-.65l5-4.36Zm-10,1.65v5.63h4.68v-5h3v5H57.7V32.78l-5-4.35Z"/><rect class="cls-1" x="389.73" y="7.4" width="8.42" height="8.42"/><rect class="cls-14" x="389.23" y="6.9" width="8.42" height="8.42"/><rect class="cls-3" x="389.73" y="7.4" width="8.42" height="8.42"/><rect class="cls-15" x="389.23" y="6.9" width="8.42" height="8.42"/><rect class="cls-5" x="389.73" y="7.4" width="8.42" height="8.42"/><polygon class="cls-8" points="396.95 9.33 396.21 8.6 393.94 10.87 391.66 8.6 390.93 9.33 393.2 11.61 390.93 13.88 391.66 14.62 393.94 12.34 396.21 14.62 396.95 13.88 394.67 11.61 396.95 9.33"/><rect class="cls-1" x="362.53" y="7.4" width="8.42" height="8.42"/><rect class="cls-14" x="362.03" y="6.9" width="8.42" height="8.42"/><rect class="cls-3" x="362.53" y="7.4" width="8.42" height="8.42"/><rect class="cls-15" x="362.03" y="6.9" width="8.42" height="8.42"/><rect class="cls-5" x="362.53" y="7.4" width="8.42" height="8.42"/><rect class="cls-8" x="363.99" y="13.58" width="5.31" height="1.37"/><rect class="cls-1" x="376.12" y="7.4" width="8.42" height="8.42"/><rect class="cls-14" x="375.62" y="6.9" width="8.42" height="8.42"/><rect class="cls-3" x="376.12" y="7.4" width="8.42" height="8.42"/><rect class="cls-15" x="375.62" y="6.9" width="8.42" height="8.42"/><rect class="cls-5" x="376.12" y="7.4" width="8.42" height="8.42"/><path class="cls-8" d="M377.09,8.5v6.22h6.48V8.5Zm.7,5.62V9.78h5.08v4.34Z"/><rect class="cls-9" x="6.66" y="49.24" width="395.16" height="236.16"/><rect class="cls-10" x="6.16" y="48.74" width="395.16" height="236.16"/><rect class="cls-11" x="6.66" y="49.24" width="395.16" height="236.16"/><rect class="cls-12" x="6.16" y="48.74" width="395.16" height="236.16"/><rect class="cls-13" x="6.66" y="49.24" width="395.16" height="236.16"/><ellipse class="cls-16" cx="78.93" cy="33.44" rx="6.05" ry="5.61"/><ellipse class="cls-16" cx="78.93" cy="33.44" rx="3.19" ry="5.61"/><path class="cls-16" d="M83.5,29.76a10.68,10.68,0,0,1-9.15,0"/><path class="cls-16" d="M74.35,37.12a10.77,10.77,0,0,1,9.15,0"/><line class="cls-16" x1="72.87" y1="33.44" x2="84.98" y2="33.44"/><line class="cls-16" x1="78.93" y1="27.83" x2="78.93" y2="39.06"/></g></g></g></svg>