<?xml version="1.0" ?><!DOCTYPE svg  PUBLIC '-//W3C//DTD SVG 1.1//EN'  'http://www.w3.org/Graphics/SVG/1.1/DTD/svg11.dtd'><svg enable-background="new 0 0 160 80" id="Layer_1" version="1.1" viewBox="0 0 160 80" xml:space="preserve" xmlns="http://www.w3.org/2000/svg" xmlns:xlink="http://www.w3.org/1999/xlink"><g><rect height="9" width="9" x="45" y="6"/><rect height="9" width="9" x="54" y="6"/><rect height="9" width="8" x="63" y="6"/><rect height="9" width="9" x="71" y="6"/><rect height="9" width="9" x="80" y="6"/><rect height="8" width="8" x="37" y="15"/><rect height="8" width="9" x="45" y="15"/><rect height="8" width="9" x="54" y="15"/><rect height="8" width="8" x="63" y="15"/><rect height="8" width="9" x="71" y="15"/><rect height="8" width="9" x="80" y="15"/><rect height="8" width="8" x="89" y="15"/><rect height="9" width="8" x="37" y="23"/><rect height="9" width="9" x="45" y="23"/><rect height="9" width="9" x="54" y="23"/><rect height="9" width="8" x="63" y="23"/><rect height="9" width="9" x="71" y="23"/><rect height="9" width="9" x="80" y="23"/><rect height="9" width="8" x="89" y="23"/><rect height="8" width="8" x="37" y="32"/><rect height="8" width="9" x="45" y="32"/><rect height="8" width="8" x="63" y="32"/><rect height="8" width="9" x="80" y="32"/><rect height="8" width="8" x="89" y="32"/><rect height="8" width="9" x="97" y="32"/><rect height="9" width="8" x="37" y="40"/><rect height="9" width="9" x="45" y="40"/><rect height="9" width="9" x="54" y="40"/><rect height="9" width="8" x="63" y="40"/><rect height="9" width="9" x="71" y="40"/><rect height="9" width="9" x="80" y="40"/><rect height="9" width="8" x="89" y="40"/><rect height="9" width="8" x="37" y="49"/><rect height="9" width="9" x="45" y="49"/><rect height="9" width="9" x="54" y="49"/><rect height="9" width="8" x="63" y="49"/><rect height="9" width="9" x="71" y="49"/><rect height="9" width="9" x="80" y="49"/><rect height="9" width="8" x="89" y="49"/><rect height="8" width="9" x="114" y="15"/><rect height="9" width="8" x="106" y="23"/><rect height="9" width="9" x="114" y="23"/><rect height="8" width="8" x="106" y="32"/><rect height="8" width="9" x="114" y="32"/><rect height="9" width="8" x="106" y="40"/><rect height="9" width="9" x="114" y="40"/><rect height="9" width="9" x="114" y="49"/><rect height="8" width="9" x="45" y="58"/><rect height="8" width="9" x="54" y="58"/><rect height="8" width="8" x="63" y="58"/><rect height="8" width="9" x="71" y="58"/><rect height="8" width="9" x="80" y="58"/></g></svg>