<svg xmlns="http://www.w3.org/2000/svg" viewBox="0 0 86 60"><g id="Layer_2" data-name="Layer 2"><g id="Layer_1-2" data-name="Layer 1"><rect x="8" width="9" height="9"/><rect x="17" width="9" height="9"/><rect x="26" width="8" height="9"/><rect x="34" width="9" height="9"/><rect x="43" width="9" height="9"/><rect y="9" width="8" height="8"/><rect x="8" y="9" width="9" height="8"/><rect x="17" y="9" width="9" height="8"/><rect x="26" y="9" width="8" height="8"/><rect x="34" y="9" width="9" height="8"/><rect x="43" y="9" width="9" height="8"/><rect x="52" y="9" width="8" height="8"/><rect y="17" width="8" height="9"/><rect x="8" y="17" width="9" height="9"/><rect x="17" y="17" width="9" height="9"/><rect x="26" y="17" width="8" height="9"/><rect x="34" y="17" width="9" height="9"/><rect x="43" y="17" width="9" height="9"/><rect x="52" y="17" width="8" height="9"/><rect y="26" width="8" height="8"/><rect x="8" y="26" width="9" height="8"/><rect x="26" y="26" width="8" height="8"/><rect x="43" y="26" width="9" height="8"/><rect x="52" y="26" width="8" height="8"/><rect x="60" y="26" width="9" height="8"/><rect y="34" width="8" height="9"/><rect x="8" y="34" width="9" height="9"/><rect x="17" y="34" width="9" height="9"/><rect x="26" y="34" width="8" height="9"/><rect x="34" y="34" width="9" height="9"/><rect x="43" y="34" width="9" height="9"/><rect x="52" y="34" width="8" height="9"/><rect y="43" width="8" height="9"/><rect x="8" y="43" width="9" height="9"/><rect x="17" y="43" width="9" height="9"/><rect x="26" y="43" width="8" height="9"/><rect x="34" y="43" width="9" height="9"/><rect x="43" y="43" width="9" height="9"/><rect x="52" y="43" width="8" height="9"/><rect x="77" y="9" width="9" height="8"/><rect x="69" y="17" width="8" height="9"/><rect x="77" y="17" width="9" height="9"/><rect x="69" y="26" width="8" height="8"/><rect x="77" y="26" width="9" height="8"/><rect x="69" y="34" width="8" height="9"/><rect x="77" y="34" width="9" height="9"/><rect x="77" y="43" width="9" height="9"/><rect x="8" y="52" width="9" height="8"/><rect x="17" y="52" width="9" height="8"/><rect x="26" y="52" width="8" height="8"/><rect x="34" y="52" width="9" height="8"/><rect x="43" y="52" width="9" height="8"/></g></g></svg>