<svg xmlns="http://www.w3.org/2000/svg" viewBox="0 0 99 60"><g id="Layer_2" data-name="Layer 2"><g id="Layer_1-2" data-name="Layer 1"><rect x="15" y="7" width="7" height="8"/><rect x="7" width="8" height="7"/><rect width="7" height="7"/><rect x="15" width="7" height="7"/><rect x="22" width="8" height="7"/><rect x="30" width="8" height="7"/><rect x="38" width="8" height="7"/><rect x="46" width="7" height="7"/><rect y="15" width="7" height="7"/><rect y="7" width="7" height="8"/><rect y="22" width="7" height="8"/><rect y="30" width="7" height="8"/><rect y="38" width="7" height="7"/><rect y="45" width="7" height="8"/><rect y="53" width="7" height="7"/><rect x="91" y="15" width="8" height="7"/><rect x="91" y="7" width="8" height="8"/><rect x="91" y="22" width="8" height="8"/><rect x="91" y="30" width="8" height="8"/><rect x="91" y="38" width="8" height="7"/><rect x="91" y="45" width="8" height="8"/><rect x="91" y="53" width="8" height="7"/><rect x="53" width="8" height="7"/><rect x="61" width="8" height="7"/><rect x="69" width="8" height="7"/><rect x="22" y="15" width="8" height="7"/><rect x="30" y="22" width="8" height="8"/><rect x="38" y="30" width="8" height="8"/><rect x="53" y="30" width="8" height="8"/><rect x="61" y="22" width="8" height="8"/><rect x="69" y="15" width="8" height="7"/><rect x="46" y="38" width="7" height="7"/><rect x="77" y="7" width="8" height="8"/><rect x="85" width="6" height="7"/><rect x="91" width="8" height="7"/><rect x="77" width="8" height="7"/><rect x="7" y="53" width="8" height="7"/><rect x="15" y="53" width="7" height="7"/><rect x="22" y="53" width="8" height="7"/><rect x="30" y="53" width="8" height="7"/><rect x="38" y="53" width="8" height="7"/><rect x="46" y="53" width="7" height="7"/><rect x="53" y="53" width="8" height="7"/><rect x="61" y="53" width="8" height="7"/><rect x="69" y="53" width="8" height="7"/><rect x="85" y="53" width="6" height="7"/><rect x="77" y="53" width="8" height="7"/></g></g></svg>