<svg xmlns="http://www.w3.org/2000/svg" viewBox="0 0 66 55"><g id="Layer_2" data-name="Layer 2"><g id="Layer_1-2" data-name="Layer 1"><rect x="5" width="5" height="5"/><rect width="5" height="5"/><rect x="10" y="5" width="5" height="5"/><rect x="15" y="10" width="5" height="5"/><rect x="20" y="10" width="5" height="5"/><rect x="25" y="10" width="5" height="5"/><rect x="30" y="10" width="5" height="5"/><rect x="35" y="10" width="5" height="5"/><rect x="40" y="10" width="16" height="5"/><rect x="56" y="40" width="5" height="5"/><rect x="51" y="45" width="5" height="5"/><rect x="61" y="45" width="5" height="5"/><rect x="56" y="50" width="5" height="5"/><rect x="15" y="40" width="5" height="5"/><rect x="10" y="45" width="5" height="5"/><rect x="20" y="45" width="5" height="5"/><rect x="15" y="50" width="5" height="5"/><rect x="20" y="30" width="5" height="5"/><rect x="25" y="30" width="5" height="5"/><rect x="30" y="30" width="5" height="5"/><rect x="35" y="30" width="5" height="5"/><rect x="40" y="30" width="16" height="5"/><rect x="56" y="10" width="5" height="5"/><rect x="15" y="15" width="5" height="5"/><rect x="15" y="20" width="10" height="5"/><rect x="15" y="25" width="5" height="5"/><rect x="56" y="15" width="5" height="5"/><rect x="56" y="20" width="5" height="5"/><rect x="56" y="25" width="5" height="5"/><rect x="35" y="15" width="5" height="5"/><rect x="35" y="20" width="10" height="5"/><rect x="35" y="25" width="5" height="5"/><rect x="45" y="15" width="5" height="5"/><rect x="45" y="20" width="11" height="5"/><rect x="45" y="25" width="5" height="5"/><rect x="25" y="15" width="5" height="5"/><rect x="25" y="20" width="10" height="5"/><rect x="25" y="25" width="5" height="5"/></g></g></svg>