<svg xmlns="http://www.w3.org/2000/svg" viewBox="0 0 68 60"><g id="Layer_2" data-name="Layer 2"><g id="Layer_1-2" data-name="Layer 1"><rect x="8" width="7" height="7"/><rect x="15" width="8" height="7"/><rect x="23" width="6" height="7"/><rect y="7" width="8" height="8"/><rect x="8" y="7" width="7" height="8"/><rect x="23" y="7" width="6" height="8"/><rect x="29" y="7" width="9" height="8"/><rect x="38" y="7" width="7" height="8"/><rect x="45" y="7" width="8" height="8"/><rect x="53" y="7" width="7" height="8"/><rect x="60" y="7" width="8" height="8"/><rect y="15" width="8" height="7"/><rect x="15" y="15" width="8" height="7"/><rect x="23" y="15" width="6" height="7"/><rect x="29" y="15" width="9" height="7"/><rect x="38" y="15" width="7" height="7"/><rect x="45" y="15" width="8" height="7"/><rect x="53" y="15" width="7" height="7"/><rect x="60" y="15" width="8" height="7"/><rect y="22" width="8" height="9"/><rect x="8" y="22" width="7" height="9"/><rect x="15" y="22" width="8" height="9"/><rect x="23" y="22" width="6" height="9"/><rect x="29" y="22" width="9" height="9"/><rect x="38" y="22" width="7" height="9"/><rect x="45" y="22" width="8" height="9"/><rect x="53" y="22" width="7" height="9"/><rect x="60" y="22" width="8" height="9"/><rect x="8" y="31" width="7" height="6"/><rect x="15" y="31" width="8" height="6"/><rect x="23" y="31" width="6" height="6"/><rect x="29" y="31" width="9" height="6"/><rect x="38" y="31" width="7" height="6"/><rect x="45" y="31" width="8" height="6"/><rect x="53" y="31" width="7" height="6"/><rect x="15" y="37" width="8" height="8"/><rect x="23" y="37" width="6" height="8"/><rect x="29" y="37" width="9" height="8"/><rect x="38" y="37" width="7" height="8"/><rect x="23" y="45" width="6" height="7"/><rect x="29" y="45" width="9" height="7"/><rect x="29" y="52" width="9" height="8"/><rect x="38" y="45" width="7" height="7"/><rect x="45" y="37" width="8" height="8"/><rect x="38" width="7" height="7"/><rect x="45" width="8" height="7"/><rect x="53" width="7" height="7"/></g></g></svg>