<?xml version="1.0" ?><!DOCTYPE svg  PUBLIC '-//W3C//DTD SVG 1.1//EN'  'http://www.w3.org/Graphics/SVG/1.1/DTD/svg11.dtd'><svg enable-background="new 0 0 160 80" id="Layer_1" version="1.1" viewBox="0 0 160 80" xml:space="preserve" xmlns="http://www.w3.org/2000/svg" xmlns:xlink="http://www.w3.org/1999/xlink"><g><rect height="6" width="6" x="72" y="6"/><rect height="6" width="5" x="78" y="6"/><rect height="6" width="6" x="61" y="22"/><rect height="6" width="5" x="67" y="22"/><rect height="6" width="6" x="88" y="22"/><rect height="6" width="5" x="94" y="22"/><rect height="6" width="5" x="83" y="6"/><rect height="5" width="6" x="72" y="34"/><rect height="5" width="5" x="78" y="34"/><rect height="5" width="5" x="67" y="34"/><rect height="5" width="6" x="88" y="34"/><rect height="5" width="5" x="83" y="34"/><rect height="5" width="6" x="72" y="39"/><rect height="5" width="5" x="78" y="39"/><rect height="5" width="5" x="67" y="39"/><rect height="5" width="6" x="88" y="39"/><rect height="5" width="5" x="83" y="39"/><rect height="5" width="6" x="72" y="44"/><rect height="5" width="5" x="78" y="44"/><rect height="5" width="5" x="83" y="44"/><rect height="6" width="6" x="72" y="49"/><rect height="6" width="5" x="78" y="49"/><rect height="5" width="5" x="78" y="55"/><rect height="6" width="5" x="78" y="60"/><rect height="6" width="5" x="83" y="49"/><rect height="5" width="6" x="72" y="17"/><rect height="5" width="6" x="61" y="17"/><rect height="5" width="5" x="67" y="17"/><rect height="5" width="6" x="88" y="17"/><rect height="5" width="5" x="94" y="17"/><rect height="5" width="5" x="83" y="17"/><rect height="6" width="6" x="72" y="28"/><rect height="6" width="6" x="61" y="28"/><rect height="6" width="5" x="67" y="28"/><rect height="6" width="6" x="88" y="28"/><rect height="6" width="5" x="94" y="28"/><rect height="6" width="5" x="83" y="28"/><rect height="5" width="6" x="72" y="12"/><rect height="5" width="5" x="78" y="12"/><rect height="5" width="5" x="67" y="12"/><rect height="5" width="6" x="88" y="12"/><rect height="5" width="5" x="83" y="12"/></g></svg>