<svg xmlns="http://www.w3.org/2000/svg" viewBox="0 0 38 60"><g id="Layer_2" data-name="Layer 2"><g id="Layer_1-2" data-name="Layer 1"><rect x="11" width="6" height="6"/><rect x="17" width="5" height="6"/><rect y="16" width="6" height="6"/><rect x="6" y="16" width="5" height="6"/><rect x="27" y="16" width="6" height="6"/><rect x="33" y="16" width="5" height="6"/><rect x="22" width="5" height="6"/><rect x="11" y="28" width="6" height="5"/><rect x="17" y="28" width="5" height="5"/><rect x="6" y="28" width="5" height="5"/><rect x="27" y="28" width="6" height="5"/><rect x="22" y="28" width="5" height="5"/><rect x="11" y="33" width="6" height="5"/><rect x="17" y="33" width="5" height="5"/><rect x="6" y="33" width="5" height="5"/><rect x="27" y="33" width="6" height="5"/><rect x="22" y="33" width="5" height="5"/><rect x="11" y="38" width="6" height="5"/><rect x="17" y="38" width="5" height="5"/><rect x="22" y="38" width="5" height="5"/><rect x="11" y="43" width="6" height="6"/><rect x="17" y="43" width="5" height="6"/><rect x="17" y="49" width="5" height="5"/><rect x="17" y="54" width="5" height="6"/><rect x="22" y="43" width="5" height="6"/><rect x="11" y="11" width="6" height="5"/><rect y="11" width="6" height="5"/><rect x="6" y="11" width="5" height="5"/><rect x="27" y="11" width="6" height="5"/><rect x="33" y="11" width="5" height="5"/><rect x="22" y="11" width="5" height="5"/><rect x="11" y="22" width="6" height="6"/><rect y="22" width="6" height="6"/><rect x="6" y="22" width="5" height="6"/><rect x="27" y="22" width="6" height="6"/><rect x="33" y="22" width="5" height="6"/><rect x="22" y="22" width="5" height="6"/><rect x="11" y="6" width="6" height="5"/><rect x="17" y="6" width="5" height="5"/><rect x="6" y="6" width="5" height="5"/><rect x="27" y="6" width="6" height="5"/><rect x="22" y="6" width="5" height="5"/></g></g></svg>