<svg xmlns="http://www.w3.org/2000/svg" viewBox="0 0 49.75 49.75"><defs><style>.cls-1{fill:red;stroke:#000;stroke-miterlimit:10;stroke-width:0.5px;}</style></defs><g id="Layer_2" data-name="Layer 2"><g id="Layer_1-2" data-name="Layer 1"><polygon class="cls-1" points="14.36 26.95 16.14 26.95 16.14 35.8 17.87 35.8 17.87 26.95 19.65 26.95 19.65 25.44 14.36 25.44 14.36 26.95"/><path class="cls-1" d="M24.94,19.59a.79.79,0,0,0,.56-.19.72.72,0,0,0,.2-.53V14.28a.52.52,0,0,0-.21-.45.86.86,0,0,0-.55-.17.77.77,0,0,0-.51.17.56.56,0,0,0-.2.45v4.59a.74.74,0,0,0,.19.53A.68.68,0,0,0,24.94,19.59Z"/><path class="cls-1" d="M28.74,28.07a1.49,1.49,0,0,0-.7.18,2.44,2.44,0,0,0-.66.53V25.44H25.84V35.8h1.54v-.58a1.94,1.94,0,0,0,.65.52,1.88,1.88,0,0,0,.8.17,1.25,1.25,0,0,0,1-.44,1.89,1.89,0,0,0,.36-1.24V30a2.23,2.23,0,0,0-.38-1.42A1.33,1.33,0,0,0,28.74,28.07Zm-.08,6a.79.79,0,0,1-.14.52.49.49,0,0,1-.41.17.81.81,0,0,1-.37-.09,1.06,1.06,0,0,1-.36-.27V29.59a1.08,1.08,0,0,1,.31-.24.78.78,0,0,1,.33-.07.59.59,0,0,1,.48.2,1,1,0,0,1,.16.59Z"/><path class="cls-1" d="M23.16,34a2.61,2.61,0,0,1-.48.41.93.93,0,0,1-.42.16.39.39,0,0,1-.32-.12.66.66,0,0,1-.09-.39V28.16H20.32v6.39a1.65,1.65,0,0,0,.27,1,.94.94,0,0,0,.8.34,2,2,0,0,0,.89-.24,3.71,3.71,0,0,0,.88-.71v.84h1.53V28.16H23.16V34Z"/><path class="cls-1" d="M24.88.25A24.63,24.63,0,1,0,49.5,24.87,24.63,24.63,0,0,0,24.88.25Zm4,12.16h1.72v6.46a.69.69,0,0,0,.11.43.42.42,0,0,0,.35.14,1,1,0,0,0,.48-.18A2.28,2.28,0,0,0,32,18.8V12.41h1.72v8.43H32v-.93a3.54,3.54,0,0,1-1,.78,2.12,2.12,0,0,1-1,.27,1.11,1.11,0,0,1-.9-.38,1.77,1.77,0,0,1-.3-1.13Zm-6.39,1.93a1.92,1.92,0,0,1,.7-1.56A2.78,2.78,0,0,1,25,12.2a2.53,2.53,0,0,1,1.76.61,2,2,0,0,1,.68,1.58v4.35a2.18,2.18,0,0,1-.67,1.69,2.63,2.63,0,0,1-1.84.62,2.55,2.55,0,0,1-1.81-.64,2.23,2.23,0,0,1-.68-1.71V14.34ZM17.77,9.42,19,14h.13l1.19-4.56h2L20.07,16.1v4.74H18.13V16.31L15.82,9.42Zm22.54,24A5.52,5.52,0,0,1,34.8,39H15.62a5.52,5.52,0,0,1-5.52-5.52V29a5.52,5.52,0,0,1,5.52-5.52H34.8A5.52,5.52,0,0,1,40.31,29Z"/><path class="cls-1" d="M33.35,28a2.29,2.29,0,0,0-1.67.63A2.13,2.13,0,0,0,31,30.21v3.44a2.46,2.46,0,0,0,.59,1.74,2.15,2.15,0,0,0,1.62.63,2.25,2.25,0,0,0,1.71-.6,2.4,2.4,0,0,0,.58-1.77v-.39H34v.35a1.62,1.62,0,0,1-.15.87.64.64,0,0,1-.53.2.58.58,0,0,1-.52-.23,1.69,1.69,0,0,1-.15-.84V32.17h2.92v-2A2.27,2.27,0,0,0,35,28.55,2.16,2.16,0,0,0,33.35,28ZM34,31H32.61V30.2a1.16,1.16,0,0,1,.15-.68.75.75,0,0,1,1,0,1.15,1.15,0,0,1,.16.68V31Z"/></g></g></svg>