<svg xmlns="http://www.w3.org/2000/svg" viewBox="0 0 49.23 49.23"><defs><style>.cls-1{fill:#1db954;}</style></defs><g id="Layer_2" data-name="Layer 2"><g id="Layer_1-2" data-name="Layer 1"><path class="cls-1" d="M24.61,0A24.62,24.62,0,1,0,49.23,24.61,24.61,24.61,0,0,0,24.61,0Zm10,36.23a1.83,1.83,0,0,1-1-.37,24.68,24.68,0,0,0-12.74-3.29,38.91,38.91,0,0,0-7.76.85,7.57,7.57,0,0,1-1.22.25,1.54,1.54,0,0,1-1.55-1.55,1.57,1.57,0,0,1,1.34-1.69,41.2,41.2,0,0,1,9.21-1.09,27.42,27.42,0,0,1,14.31,3.71,1.64,1.64,0,0,1,1,1.64A1.54,1.54,0,0,1,34.6,36.23Zm2.68-6.52a2.26,2.26,0,0,1-1.23-.42,31.21,31.21,0,0,0-15.63-4,31.32,31.32,0,0,0-8,1,4.15,4.15,0,0,1-1.19.27A1.93,1.93,0,0,1,9.26,24.7a2,2,0,0,1,1.54-2.05,33.93,33.93,0,0,1,9.7-1.35,34.64,34.64,0,0,1,17.57,4.54,2,2,0,0,1,1.13,1.95A1.91,1.91,0,0,1,37.28,29.71Zm3-7.57a2.37,2.37,0,0,1-1.26-.38C34.61,19.09,27.7,17.61,21,17.61a37.61,37.61,0,0,0-9.83,1.19,5.19,5.19,0,0,1-1.26.27A2.31,2.31,0,0,1,7.6,16.71a2.34,2.34,0,0,1,1.72-2.35A41.51,41.51,0,0,1,21,12.85c7.23,0,14.83,1.48,20.39,4.74a2.35,2.35,0,0,1,1.27,2.24A2.3,2.3,0,0,1,40.33,22.14Z"/></g></g></svg>